<svg version="1.1" xmlns="http://www.w3.org/2000/svg" viewBox="0 0 2968.6002691790054 3665.195154777929" width="2968.6002691790054" height="3665.195154777929">
  <!-- svg-source:excalidraw -->
  
  <defs>
    <style class="style-fonts">
      @font-face {
        font-family: "Virgil";
        src: url("https://excalidraw.com/Virgil.woff2");
      }
      @font-face {
        font-family: "Cascadia";
        src: url("https://excalidraw.com/Cascadia.woff2");
      }
      @font-face {
        font-family: "Assistant";
        src: url("https://excalidraw.com/Assistant-Regular.woff2");
      }
    </style>
    
  </defs>
  <rect x="0" y="0" width="2968.6002691790054" height="3665.195154777929" fill="#ffffff"></rect><g stroke-linecap="round" transform="translate(10 10) rotate(0 1474.3001345895027 1822.5975773889645)"><path d="M7.86 8.16 C7.86 8.16, 7.86 8.16, 7.86 8.16 M7.86 8.16 C7.86 8.16, 7.86 8.16, 7.86 8.16 M0.26 41.3 C6.59 30.82, 16.76 23.22, 36.34 -0.21 M0.26 41.3 C10.68 28.21, 22.23 16.36, 36.34 -0.21 M0.52 65.38 C21.67 43.8, 42.59 18.02, 57.6 -0.28 M0.52 65.38 C13.54 51.91, 24.82 38.01, 57.6 -0.28 M0.13 90.22 C20.65 65.44, 39.74 42.7, 78.2 0.41 M0.13 90.22 C19.62 67.39, 39.64 44.97, 78.2 0.41 M0.4 114.3 C22.32 88.89, 45.88 63.18, 99.46 0.34 M0.4 114.3 C25.8 84.77, 49.78 55.94, 99.46 0.34 M0.01 139.13 C48.57 88.39, 91.67 35.12, 120.72 0.27 M0.01 139.13 C27.26 107.24, 54.25 76.02, 120.72 0.27 M0.27 163.22 C51.72 103.01, 101.67 46.97, 141.98 0.2 M0.27 163.22 C49.43 104.89, 99.42 47.13, 141.98 0.2 M0.54 187.3 C59.93 119.55, 118.53 48.4, 163.24 0.13 M0.54 187.3 C62.16 115.07, 125.59 41.48, 163.24 0.13 M0.15 212.13 C47.7 157.08, 93.11 104.56, 184.5 0.06 M0.15 212.13 C70.93 128.43, 144.19 45.5, 184.5 0.06 M0.42 236.22 C77.88 143.3, 158.8 53.06, 205.76 -0.01 M0.42 236.22 C74.67 151.75, 148.32 67.53, 205.76 -0.01 M0.03 261.05 C75.77 173.28, 151.14 85.68, 227.02 -0.08 M0.03 261.05 C76.4 174.28, 153.81 85.79, 227.02 -0.08 M0.29 285.13 C79.43 192.34, 158.47 101.77, 248.28 -0.15 M0.29 285.13 C68.24 206.91, 136.74 128.4, 248.28 -0.15 M-0.1 309.97 C83.08 217.16, 165.85 123.6, 269.54 -0.22 M-0.1 309.97 C90.07 208.58, 179.52 106.38, 269.54 -0.22 M0.17 334.05 C71.38 252.38, 140.61 171.75, 290.8 -0.28 M0.17 334.05 C91.04 231.17, 180.48 128.61, 290.8 -0.28 M0.44 358.13 C119.87 217.35, 240.5 78.2, 311.41 0.4 M0.44 358.13 C121.41 221.07, 241.63 82.38, 311.41 0.4 M0.05 382.97 C107.98 257.17, 215.92 133.17, 332.67 0.33 M0.05 382.97 C116.55 249.95, 232.73 116.94, 332.67 0.33 M0.31 407.05 C96.81 294.3, 195.28 181.12, 353.93 0.26 M0.31 407.05 C106.94 284.49, 213.82 161.88, 353.93 0.26 M-0.08 431.89 C128.7 285.44, 257.24 137.24, 375.19 0.19 M-0.08 431.89 C119.61 294.82, 237.4 158.76, 375.19 0.19 M0.19 455.97 C78.49 362.48, 158.31 271.05, 396.45 0.12 M0.19 455.97 C136.19 300.67, 272.01 143.54, 396.45 0.12 M0.46 480.05 C149.05 306.75, 298.91 134.92, 417.71 0.06 M0.46 480.05 C108.32 356.9, 215.08 233.65, 417.71 0.06 M0.07 504.89 C108.46 380.63, 215.06 258.68, 438.97 -0.01 M0.07 504.89 C157.73 322.51, 316.99 138.95, 438.97 -0.01 M0.33 528.97 C114.89 396.97, 228.2 266.42, 460.23 -0.08 M0.33 528.97 C113.44 400.23, 226.06 270.73, 460.23 -0.08 M-0.06 553.81 C109.82 427.59, 221.27 298.57, 481.49 -0.15 M-0.06 553.81 C136.87 396.52, 272.49 240.63, 481.49 -0.15 M0.21 577.89 C184.71 365.42, 370.3 152.27, 502.75 -0.22 M0.21 577.89 C142.35 414.96, 282.41 253.92, 502.75 -0.22 M0.48 601.97 C128.25 453.4, 257.32 304.05, 523.35 0.47 M0.48 601.97 C210.88 360.17, 419.84 120.42, 523.35 0.47 M0.09 626.81 C158.45 440.34, 320.21 255.07, 544.61 0.4 M0.09 626.81 C208.76 386.85, 419.44 145.24, 544.61 0.4 M0.35 650.89 C176.83 446.52, 354.03 242.9, 565.87 0.33 M0.35 650.89 C168.91 459.11, 335.31 268.13, 565.87 0.33 M-0.04 675.72 C168.1 483.4, 335.16 290.04, 587.14 0.26 M-0.04 675.72 C187.34 459.29, 373.35 244.59, 587.14 0.26 M0.23 699.81 C188.46 484.97, 374.71 268.27, 608.4 0.19 M0.23 699.81 C194.12 478.42, 387.64 256.17, 608.4 0.19 M0.49 723.89 C128.69 574, 257.3 427.67, 629.66 0.12 M0.49 723.89 C157.8 540.73, 316.87 357.92, 629.66 0.12 M0.11 748.72 C167.01 560.58, 332.05 371.75, 650.92 0.05 M0.11 748.72 C197.33 521.73, 393.44 295.75, 650.92 0.05 M0.37 772.81 C142.54 612.54, 282.19 450.51, 672.18 -0.02 M0.37 772.81 C199.73 544.25, 399.84 314.08, 672.18 -0.02 M-0.02 797.64 C153.73 621.76, 306.95 444.24, 693.44 -0.09 M-0.02 797.64 C173.98 594.68, 348.37 393.28, 693.44 -0.09 M0.25 821.72 C184.25 606.82, 371.33 393.39, 714.7 -0.16 M0.25 821.72 C277.73 507.36, 552.46 191.06, 714.7 -0.16 M0.51 845.81 C174.56 648.61, 346.77 451.22, 735.96 -0.22 M0.51 845.81 C186.83 632.8, 371.28 419.71, 735.96 -0.22 M0.12 870.64 C160.82 685.78, 323.08 499.57, 756.56 0.46 M0.12 870.64 C282.69 549.13, 564.19 225.49, 756.56 0.46 M0.39 894.72 C278.52 573.85, 556.53 252.44, 777.82 0.39 M0.39 894.72 C276.68 574.1, 556.16 252.79, 777.82 0.39 M0 919.56 C265.06 620.08, 527.08 318.66, 799.08 0.32 M0 919.56 C278.42 601.61, 554.73 284.37, 799.08 0.32 M0.27 943.64 C175.79 740.18, 349.9 539.95, 820.34 0.25 M0.27 943.64 C255.13 646.84, 510.62 352.03, 820.34 0.25 M0.53 967.72 C300.8 624.18, 597.82 282.5, 841.6 0.19 M0.53 967.72 C270.28 662.69, 537.2 355.9, 841.6 0.19 M0.14 992.56 C225.86 734.54, 452.66 474.32, 862.86 0.12 M0.14 992.56 C195.64 772.61, 387.83 550.95, 862.86 0.12 M0.41 1016.64 C218.97 764.85, 434.18 516.1, 884.12 0.05 M0.41 1016.64 C288.45 689.27, 576.15 359.1, 884.12 0.05 M0.02 1041.48 C291.47 707.72, 583.16 370.57, 905.38 -0.02 M0.02 1041.48 C255.06 751.33, 509.27 459.94, 905.38 -0.02 M0.29 1065.56 C229.82 799.52, 464.81 529.28, 926.64 -0.09 M0.29 1065.56 C306.46 711.04, 615.98 354.66, 926.64 -0.09 M-0.1 1090.4 C244.18 815.93, 485.55 537.98, 947.9 -0.16 M-0.1 1090.4 C234.92 817.11, 472.17 543.21, 947.9 -0.16 M0.16 1114.48 C219.08 857.87, 439.34 605.81, 969.16 -0.23 M0.16 1114.48 C324.12 736.64, 650.75 360.6, 969.16 -0.23 M0.43 1138.56 C267.18 828.39, 535.06 519.9, 989.77 0.46 M0.43 1138.56 C369.09 711.02, 741.96 283.17, 989.77 0.46 M0.04 1163.4 C313.27 795.84, 631.79 429.04, 1011.03 0.39 M0.04 1163.4 C257.01 874.33, 510.63 582.46, 1011.03 0.39 M0.31 1187.48 C237.02 913.44, 473.72 639.18, 1032.29 0.32 M0.31 1187.48 C282.06 858.41, 567.27 530.71, 1032.29 0.32 M-0.08 1212.31 C273.01 895.73, 549.21 579.09, 1053.55 0.25 M-0.08 1212.31 C232.91 944.57, 465.97 676.05, 1053.55 0.25 M0.18 1236.4 C362.5 815.56, 729.79 393.09, 1074.81 0.18 M0.18 1236.4 C260.09 933.47, 523.8 630.48, 1074.81 0.18 M0.45 1260.48 C348.77 861.68, 692.2 465.91, 1096.07 0.11 M0.45 1260.48 C347.3 856.93, 696.78 455.32, 1096.07 0.11 M0.06 1285.31 C284.71 947.26, 574.97 615.05, 1117.33 0.04 M0.06 1285.31 C399.35 831.13, 796.88 373.26, 1117.33 0.04 M0.33 1309.4 C362.63 896.65, 719.33 485.44, 1138.59 -0.03 M0.33 1309.4 C274.63 994.95, 549.95 679.03, 1138.59 -0.03 M-0.06 1334.23 C453.51 812.95, 906.86 293.08, 1159.85 -0.09 M-0.06 1334.23 C413.1 857.62, 828.61 379.97, 1159.85 -0.09 M0.2 1358.31 C236.27 1082.81, 475.76 807.66, 1181.11 -0.16 M0.2 1358.31 C254.25 1070.36, 507.36 779.16, 1181.11 -0.16 M0.47 1382.4 C465.97 851.26, 931.66 316.86, 1202.37 -0.23 M0.47 1382.4 C456.4 861.98, 907.29 343.59, 1202.37 -0.23 M0.08 1407.23 C390.9 954.99, 784.92 503.11, 1222.97 0.45 M0.08 1407.23 C349.82 1005.09, 701.41 601.02, 1222.97 0.45 M0.34 1431.31 C313.5 1068.77, 626.56 709.26, 1244.23 0.38 M0.34 1431.31 C258.94 1132.13, 520.11 831.31, 1244.23 0.38 M-0.05 1456.15 C391.66 1011.21, 780.88 561.96, 1265.49 0.32 M-0.05 1456.15 C307.3 1105.9, 610.1 757.37, 1265.49 0.32 M0.22 1480.23 C301.72 1130.83, 602.26 786.17, 1286.75 0.25 M0.22 1480.23 C303.5 1122.63, 613.22 766.28, 1286.75 0.25 M0.49 1504.31 C526.44 908.56, 1047.04 308.04, 1308.01 0.18 M0.49 1504.31 C357.19 1091.5, 714.06 679.86, 1308.01 0.18 M0.1 1529.15 C441.59 1026.81, 882.23 520.8, 1329.27 0.11 M0.1 1529.15 C433.13 1033.77, 860.67 542.29, 1329.27 0.11 M0.36 1553.23 C450.48 1041.84, 896.03 528.75, 1350.53 0.04 M0.36 1553.23 C434.68 1053.32, 867.27 555.19, 1350.53 0.04 M-0.03 1578.07 C541.19 961.4, 1080.36 341.26, 1371.79 -0.03 M-0.03 1578.07 C394.26 1127.02, 785.07 677.66, 1371.79 -0.03 M0.24 1602.15 C321.69 1223.45, 647.15 846.91, 1393.05 -0.1 M0.24 1602.15 C466.9 1065.16, 937.46 523.78, 1393.05 -0.1 M0.51 1626.23 C295.58 1281.16, 596.31 935.21, 1414.31 -0.17 M0.51 1626.23 C334.9 1242.5, 672.29 854.83, 1414.31 -0.17 M0.12 1651.07 C490.42 1084.36, 987.24 513.63, 1435.57 -0.24 M0.12 1651.07 C297.88 1303.06, 598.43 956.77, 1435.57 -0.24 M0.38 1675.15 C338.96 1277.88, 681.95 882.46, 1456.18 0.45 M0.38 1675.15 C384.2 1223.25, 773.28 776.71, 1456.18 0.45 M-0.01 1699.99 C428.37 1201.91, 861.57 704.4, 1477.44 0.38 M-0.01 1699.99 C357.93 1276.48, 721.04 858.59, 1477.44 0.38 M0.26 1724.07 C377.21 1280.29, 757.39 843.47, 1498.7 0.31 M0.26 1724.07 C494.16 1148.81, 990.58 578.06, 1498.7 0.31 M0.53 1748.15 C316.6 1386.07, 629.44 1026, 1519.96 0.24 M0.53 1748.15 C430.1 1256.84, 861.48 760.85, 1519.96 0.24 M0.14 1772.99 C469.35 1223.7, 944.51 676.48, 1541.22 0.17 M0.14 1772.99 C567.52 1121.44, 1136.27 467.21, 1541.22 0.17 M0.4 1797.07 C333.09 1417.7, 664.29 1037.63, 1562.48 0.1 M0.4 1797.07 C609.7 1108.98, 1213.27 415.27, 1562.48 0.1 M0.01 1821.9 C611.81 1118.61, 1224.44 413.88, 1583.74 0.04 M0.01 1821.9 C623.41 1099.32, 1249.02 379.97, 1583.74 0.04 M0.28 1845.99 C548.29 1221.38, 1090.09 597.41, 1605 -0.03 M0.28 1845.99 C557.82 1205.63, 1109.91 570.85, 1605 -0.03 M0.55 1870.07 C542 1250.56, 1076.69 635.01, 1626.26 -0.1 M0.55 1870.07 C654.1 1124.1, 1304.07 376.75, 1626.26 -0.1 M0.16 1894.9 C336.04 1495.6, 676.92 1104.65, 1647.52 -0.17 M0.16 1894.9 C614.56 1180.98, 1229.61 473.64, 1647.52 -0.17 M0.42 1918.99 C533.77 1300.09, 1068.17 686.33, 1668.78 -0.24 M0.42 1918.99 C420.66 1437.99, 838.18 956.93, 1668.78 -0.24 M0.03 1943.82 C578.3 1275.1, 1156.61 609.83, 1689.38 0.44 M0.03 1943.82 C366.41 1517.64, 734.66 1094.42, 1689.38 0.44 M0.3 1967.9 C671.9 1196.21, 1346.08 421.41, 1710.64 0.38 M0.3 1967.9 C671.36 1202.69, 1341.56 431.55, 1710.64 0.38 M-0.09 1992.74 C452.27 1465.77, 912.02 935.8, 1731.9 0.31 M-0.09 1992.74 C428.42 1498.28, 855.1 1006.5, 1731.9 0.31 M0.17 2016.82 C586.53 1339.2, 1174.74 661.75, 1753.16 0.24 M0.17 2016.82 C604.33 1328.26, 1207.04 635.14, 1753.16 0.24 M0.44 2040.9 C704.42 1225.23, 1407.02 418.03, 1774.42 0.17 M0.44 2040.9 C626.36 1310.6, 1259.42 583.07, 1774.42 0.17 M0.05 2065.74 C667.17 1288.91, 1340.27 517.01, 1795.68 0.1 M0.05 2065.74 C363.91 1645.98, 728.62 1226.06, 1795.68 0.1 M0.32 2089.82 C632.4 1361, 1270.52 624.95, 1816.95 0.03 M0.32 2089.82 C488.77 1527.15, 980 962.22, 1816.95 0.03 M-0.07 2114.66 C526.5 1495.76, 1061.13 881.12, 1838.21 -0.04 M-0.07 2114.66 C641.15 1380.65, 1273.12 653.46, 1838.21 -0.04 M0.19 2138.74 C471.27 1601, 935.99 1066.37, 1859.47 -0.11 M0.19 2138.74 C433.34 1626.91, 874.63 1119.34, 1859.47 -0.11 M0.46 2162.82 C589.36 1481.26, 1178.08 805.38, 1880.73 -0.18 M0.46 2162.82 C604.8 1473.36, 1199.96 788.06, 1880.73 -0.18 M0.07 2187.66 C395.25 1739.89, 784.71 1291.61, 1901.99 -0.25 M0.07 2187.66 C624.98 1465.59, 1258.96 735.88, 1901.99 -0.25 M0.34 2211.74 C414.19 1730.08, 832.69 1248.9, 1922.59 0.44 M0.34 2211.74 C667.71 1438.23, 1336.34 668.87, 1922.59 0.44 M-0.05 2236.58 C456.96 1722.44, 905.97 1206.85, 1943.85 0.37 M-0.05 2236.58 C701.82 1430.63, 1404.66 622.66, 1943.85 0.37 M0.21 2260.66 C458.99 1745.05, 913.81 1222.46, 1965.11 0.3 M0.21 2260.66 C482.46 1722.64, 955.74 1177.77, 1965.11 0.3 M0.48 2284.74 C680.78 1504.63, 1353.35 729.08, 1986.37 0.23 M0.48 2284.74 C701.39 1491.69, 1396.85 691.2, 1986.37 0.23 M0.09 2309.58 C648.47 1562.24, 1303.1 811.01, 2007.63 0.16 M0.09 2309.58 C556.51 1679.86, 1110.36 1043.16, 2007.63 0.16 M0.36 2333.66 C485.55 1778.81, 972.95 1219.61, 2028.89 0.1 M0.36 2333.66 C524.22 1733.21, 1043.02 1136.42, 2028.89 0.1 M-0.03 2358.49 C663.78 1595.6, 1328.05 830.55, 2050.15 0.03 M-0.03 2358.49 C628.83 1625.96, 1261.52 897.94, 2050.15 0.03 M0.23 2382.58 C507.28 1802.64, 1009.37 1225.68, 2071.41 -0.04 M0.23 2382.58 C533.24 1756.75, 1072.86 1137.27, 2071.41 -0.04 M0.5 2406.66 C829.72 1449.01, 1659.61 494.95, 2092.67 -0.11 M0.5 2406.66 C576.77 1753.05, 1147.05 1097.28, 2092.67 -0.11 M0.11 2431.49 C750.7 1572.62, 1497.29 714.27, 2113.93 -0.18 M0.11 2431.49 C574.46 1772.28, 1149.45 1110.58, 2113.93 -0.18 M0.38 2455.58 C778.95 1569.57, 1552.08 681.38, 2135.19 -0.25 M0.38 2455.58 C602.15 1774.29, 1194.86 1092.8, 2135.19 -0.25 M-0.01 2480.41 C824.67 1534.72, 1641.46 594.78, 2155.8 0.44 M-0.01 2480.41 C495.03 1909.34, 985.99 1345.51, 2155.8 0.44 M0.25 2504.49 C844.24 1530.9, 1688.08 560.9, 2177.06 0.37 M0.25 2504.49 C681.12 1736.68, 1354.07 961.61, 2177.06 0.37 M0.52 2528.58 C499.51 1973.11, 988.47 1409.86, 2198.32 0.3 M0.52 2528.58 C842.74 1544.46, 1694.94 564.48, 2198.32 0.3 M0.13 2553.41 C637.35 1816.74, 1279.42 1077.31, 2219.58 0.23 M0.13 2553.41 C728.68 1703.88, 1463.2 858.96, 2219.58 0.23 M0.4 2577.49 C867.29 1579.61, 1733.86 580.33, 2240.84 0.16 M0.4 2577.49 C533.07 1948.42, 1073.9 1326.15, 2240.84 0.16 M0.01 2602.33 C522.44 2000.62, 1046.04 1398.03, 2262.1 0.09 M0.01 2602.33 C853.51 1617.7, 1716.18 624.29, 2262.1 0.09 M0.27 2626.41 C624.22 1913.44, 1250.3 1193.17, 2283.36 0.02 M0.27 2626.41 C462.52 2086.71, 927.19 1552.45, 2283.36 0.02 M0.54 2650.49 C529.44 2057.54, 1052.03 1457.03, 2304.62 -0.05 M0.54 2650.49 C631.59 1919.54, 1269.36 1185.2, 2304.62 -0.05 M0.15 2675.33 C653.38 1923.66, 1309.13 1168.36, 2325.88 -0.12 M0.15 2675.33 C727.12 1827.14, 1462.13 981.71, 2325.88 -0.12 M0.41 2699.41 C547.71 2061.75, 1102.1 1424.2, 2347.14 -0.18 M0.41 2699.41 C730.72 1872.69, 1457.31 1037.19, 2347.14 -0.18 M0.02 2724.25 C724.28 1886.77, 1455.94 1043.49, 2368.4 -0.25 M0.02 2724.25 C816.43 1784.92, 1638.48 839.49, 2368.4 -0.25 M0.29 2748.33 C643.29 2007.8, 1287.3 1268.52, 2389 0.43 M0.29 2748.33 C829.39 1797.21, 1660.98 840.8, 2389 0.43 M-0.1 2773.17 C612.38 2081.92, 1218.88 1383.76, 2410.26 0.36 M-0.1 2773.17 C705.31 1975.72, 1406.36 1168.91, 2410.26 0.36 M0.17 2797.25 C696.17 1995.9, 1387.56 1201.82, 2431.52 0.29 M0.17 2797.25 C818.86 1840.45, 1642.31 893.29, 2431.52 0.29 M0.43 2821.33 C755.05 1969.81, 1502.49 1110.77, 2452.78 0.23 M0.43 2821.33 C666.19 2070, 1326.95 1310.22, 2452.78 0.23 M0.04 2846.17 C702.63 2022.42, 1412.49 1206.6, 2474.04 0.16 M0.04 2846.17 C497.08 2273.17, 999.01 1695.65, 2474.04 0.16 M0.31 2870.25 C646.53 2122.27, 1295.61 1375.56, 2495.3 0.09 M0.31 2870.25 C582.84 2216.92, 1156.69 1557.25, 2495.3 0.09 M-0.08 2895.08 C573.94 2217.76, 1159.39 1542.88, 2516.56 0.02 M-0.08 2895.08 C853.15 1901.84, 1707.98 918.17, 2516.56 0.02 M0.19 2919.17 C536.07 2306.87, 1071.48 1690.13, 2537.82 -0.05 M0.19 2919.17 C637.87 2197.84, 1266.19 1474.55, 2537.82 -0.05 M0.45 2943.25 C835.87 1994.1, 1665.94 1038.5, 2559.08 -0.12 M0.45 2943.25 C831.22 1984.66, 1660.96 1030.56, 2559.08 -0.12 M0.06 2968.08 C647.3 2227.79, 1282.66 1496.4, 2580.34 -0.19 M0.06 2968.08 C582.82 2314.95, 1158.21 1653.68, 2580.34 -0.19 M0.33 2992.17 C820.57 2040.93, 1639.41 1098.8, 2601.6 -0.26 M0.33 2992.17 C548.43 2375.37, 1090.33 1753.17, 2601.6 -0.26 M-0.06 3017 C936.38 1949.64, 1867.39 878.18, 2622.21 0.43 M-0.06 3017 C994.04 1858.54, 1999.09 702.07, 2622.21 0.43 M0.21 3041.08 C534.98 2428.61, 1072.2 1810.51, 2643.47 0.36 M0.21 3041.08 C593.28 2366.04, 1173.96 1698.35, 2643.47 0.36 M0.47 3065.17 C853.27 2067.43, 1716.96 1074.6, 2664.73 0.29 M0.47 3065.17 C1032.35 1896.25, 2053.84 720.67, 2664.73 0.29 M0.08 3090 C919.68 2047.69, 1828.15 1003.52, 2685.99 0.22 M0.08 3090 C703.32 2263.25, 1413.61 1446.05, 2685.99 0.22 M0.35 3114.08 C657.08 2376.42, 1303.29 1634.32, 2707.25 0.15 M0.35 3114.08 C549.79 2474.08, 1101.33 1839.57, 2707.25 0.15 M-0.04 3138.92 C854.11 2134.58, 1719.31 1138.94, 2728.51 0.08 M-0.04 3138.92 C607.01 2430.5, 1215.27 1731.11, 2728.51 0.08 M0.23 3163 C1044.06 1962.85, 2096.18 753.68, 2749.77 0.01 M0.23 3163 C692.13 2359.45, 1383.21 1564.69, 2749.77 0.01 M0.49 3187.08 C795.06 2273.94, 1584.21 1365.21, 2771.03 -0.05 M0.49 3187.08 C709.46 2372.17, 1412.72 1562.73, 2771.03 -0.05 M0.1 3211.92 C944.16 2131.17, 1886.89 1048.34, 2792.29 -0.12 M0.1 3211.92 C730.24 2375.35, 1456.56 1540.23, 2792.29 -0.12 M0.37 3236 C676.58 2462.55, 1340.4 1698.22, 2813.55 -0.19 M0.37 3236 C832.77 2292.45, 1653.22 1348.58, 2813.55 -0.19 M-0.02 3260.84 C813.12 2339.01, 1618.86 1409.96, 2834.81 -0.26 M-0.02 3260.84 C1099.95 1983.2, 2206.66 710.58, 2834.81 -0.26 M0.24 3284.92 C906.1 2254, 1800.42 1225.61, 2855.41 0.42 M0.24 3284.92 C987.38 2153.1, 1978.68 1011.78, 2855.41 0.42 M0.51 3309 C884.94 2302.16, 1756.37 1299.53, 2876.67 0.35 M0.51 3309 C942.03 2219.17, 1888.57 1129.28, 2876.67 0.35 M0.12 3333.84 C880.36 2312.1, 1768.67 1290.52, 2897.93 0.29 M0.12 3333.84 C610.07 2643.22, 1215.1 1947.53, 2897.93 0.29 M0.39 3357.92 C795.62 2461.07, 1585.03 1555.28, 2919.19 0.22 M0.39 3357.92 C1145.36 2053.82, 2284.69 743.33, 2919.19 0.22 M0 3382.76 C1030.83 2187.02, 2073.89 986.06, 2935.86 5.43 M0 3382.76 C991.98 2228.55, 1990.11 1079.85, 2935.86 5.43 M0.26 3406.84 C1058.92 2187.22, 2124.23 961.68, 2946.63 17.44 M0.26 3406.84 C616.55 2687.07, 1244.76 1964.06, 2946.63 17.44 M0.53 3430.92 C719.18 2599.14, 1449.45 1758.74, 2949.52 38.5 M0.53 3430.92 C1139.21 2123.33, 2266.66 825.77, 2949.52 38.5 M0.14 3455.76 C1038.31 2260.95, 2078.71 1065.66, 2949.13 63.34 M0.14 3455.76 C788.65 2560.18, 1570.4 1661.14, 2949.13 63.34 M0.41 3479.84 C953.79 2401.74, 1894.56 1320, 2949.39 87.42 M0.41 3479.84 C755.58 2622.85, 1501.36 1765.63, 2949.39 87.42 M0.02 3504.67 C925.72 2432.36, 1855.04 1363.12, 2949 112.25 M0.02 3504.67 C1008.42 2344.8, 2006.97 1195.46, 2949 112.25 M0.28 3528.76 C1047.3 2331.58, 2093.48 1128.11, 2949.27 136.34 M0.28 3528.76 C711.58 2697.59, 1435.38 1865.07, 2949.27 136.34 M-0.11 3553.59 C953.13 2475.45, 1900.24 1385.92, 2949.54 160.42 M-0.11 3553.59 C743.79 2681.22, 1492.55 1820.24, 2949.54 160.42 M0.16 3577.67 C849.58 2600.16, 1697.21 1626.27, 2949.15 185.25 M0.16 3577.67 C979.3 2461.94, 1954.18 1339.85, 2949.15 185.25 M0.43 3601.76 C995.43 2446.92, 1996.15 1295.62, 2949.41 209.34 M0.43 3601.76 C1058.87 2393.98, 2111.6 1183.01, 2949.41 209.34 M2 3624.33 C876.9 2608.11, 1754.77 1598.69, 2949.02 234.17 M2 3624.33 C758.63 2750.8, 1512.61 1882.96, 2949.02 234.17 M10.8 3638.6 C1006.72 2491.05, 2002.97 1346.52, 2949.29 258.25 M10.8 3638.6 C659.1 2901.17, 1309.54 2153.22, 2949.29 258.25 M26.81 3644.57 C962.3 2577.87, 1888.56 1512.06, 2949.55 282.34 M26.81 3644.57 C730.83 2831.39, 1446.45 2008.7, 2949.55 282.34 M46.76 3646.01 C1173.65 2351.31, 2293.88 1062.21, 2949.16 307.17 M46.76 3646.01 C1054 2491.87, 2056.2 1338.82, 2949.16 307.17 M68.02 3645.94 C993.26 2571.75, 1922.59 1503.05, 2949.43 331.25 M68.02 3645.94 C914.84 2650.09, 1771.46 1664.56, 2949.43 331.25 M89.28 3645.87 C1073.5 2510.6, 2062.67 1373.41, 2949.04 356.09 M89.28 3645.87 C817.2 2794.83, 1550.04 1951.97, 2949.04 356.09 M110.54 3645.8 C789.94 2849.07, 1474.13 2062.5, 2949.31 380.17 M110.54 3645.8 C947.2 2703.96, 1770.59 1756.85, 2949.31 380.17 M131.8 3645.73 C1203.77 2411.3, 2277.93 1176.8, 2949.57 404.25 M131.8 3645.73 C698.07 2973.98, 1278.04 2306.93, 2949.57 404.25 M153.06 3645.66 C837.9 2855.08, 1531.58 2057.34, 2949.18 429.09 M153.06 3645.66 C929.08 2757.31, 1703.36 1866.33, 2949.18 429.09 M174.32 3645.59 C892.37 2822.71, 1599.56 2008.9, 2949.45 453.17 M174.32 3645.59 C925.24 2771.24, 1682.94 1899.32, 2949.45 453.17 M195.58 3645.52 C932.99 2798.48, 1668.71 1951.57, 2949.06 478.01 M195.58 3645.52 C1253.28 2428.12, 2320.15 1201.16, 2949.06 478.01 M216.84 3645.46 C842.09 2924.41, 1461.98 2212.21, 2949.33 502.09 M216.84 3645.46 C928.5 2817.34, 1650.24 1987.09, 2949.33 502.09 M238.1 3645.39 C965.11 2798.59, 1697.4 1955.63, 2949.59 526.17 M238.1 3645.39 C1133.57 2623.83, 2022.69 1600.47, 2949.59 526.17 M259.36 3645.32 C1221.09 2548.37, 2176.23 1449.05, 2949.2 551.01 M259.36 3645.32 C830.63 2986.12, 1398.6 2332.14, 2949.2 551.01 M279.97 3646 C1277.92 2493.54, 2286.76 1333.49, 2949.47 575.09 M279.97 3646 C1034.51 2771.07, 1787.22 1905.01, 2949.47 575.09 M301.23 3645.93 C1350.83 2436.52, 2404.54 1223.33, 2949.08 599.93 M301.23 3645.93 C1022.45 2805.07, 1744.66 1974.5, 2949.08 599.93 M322.49 3645.87 C1276.6 2551.84, 2221.32 1465.87, 2949.35 624.01 M322.49 3645.87 C874.62 3013.69, 1423.16 2383.19, 2949.35 624.01 M343.75 3645.8 C1142.55 2704.86, 1952.95 1773.51, 2949.61 648.09 M343.75 3645.8 C944.78 2934.89, 1556.71 2230.54, 2949.61 648.09 M365.01 3645.73 C1209.16 2667.77, 2065.1 1684.52, 2949.22 672.93 M365.01 3645.73 C1250.16 2622.56, 2140.63 1598.17, 2949.22 672.93 M386.27 3645.66 C1269.91 2613.71, 2160.47 1589.27, 2949.49 697.01 M386.27 3645.66 C923.91 3020.54, 1458.86 2405.62, 2949.49 697.01 M407.53 3645.59 C1068.37 2886.76, 1729.03 2127.88, 2949.1 721.84 M407.53 3645.59 C1174.89 2764.43, 1942.42 1881.34, 2949.1 721.84 M428.79 3645.52 C1329.32 2602.39, 2236.7 1556.49, 2949.37 745.93 M428.79 3645.52 C1261.73 2679.03, 2100.93 1713.41, 2949.37 745.93 M450.05 3645.45 C1103.68 2904.61, 1750.92 2161.11, 2949.63 770.01 M450.05 3645.45 C1377.06 2584.21, 2303.82 1518.46, 2949.63 770.01 M471.31 3645.38 C1220.92 2791.19, 1966.63 1933.15, 2949.24 794.84 M471.31 3645.38 C1145.98 2872.83, 1822.61 2094.53, 2949.24 794.84 M492.57 3645.31 C1201.83 2816.95, 1919.55 1992.91, 2949.51 818.93 M492.57 3645.31 C1022.86 3030.69, 1553.51 2420.7, 2949.51 818.93 M513.17 3646 C1299.8 2748.91, 2073.56 1858.78, 2949.12 843.76 M513.17 3646 C1301.55 2746.79, 2081.77 1849.76, 2949.12 843.76 M534.43 3645.93 C1179.81 2894.31, 1829.72 2147.15, 2949.38 867.84 M534.43 3645.93 C1456.76 2592.31, 2375.99 1535.29, 2949.38 867.84 M555.69 3645.86 C1182.56 2929.58, 1803.91 2213.81, 2949 892.68 M555.69 3645.86 C1260.91 2837.98, 1961.7 2032.14, 2949 892.68 M576.95 3645.79 C1415.02 2683.62, 2247.95 1725.23, 2949.26 916.76 M576.95 3645.79 C1477.3 2601.14, 2386.88 1554.98, 2949.26 916.76 M598.21 3645.72 C1477.72 2635.12, 2354.07 1626.8, 2949.53 940.84 M598.21 3645.72 C1142.17 2999.51, 1695.75 2362.27, 2949.53 940.84 M619.47 3645.65 C1188.13 2989.91, 1758.61 2332.66, 2949.14 965.68 M619.47 3645.65 C1123.52 3057.65, 1635.94 2468.04, 2949.14 965.68 M640.73 3645.59 C1098.52 3120.49, 1560.96 2587.12, 2949.4 989.76 M640.73 3645.59 C1378.01 2787.41, 2116.74 1937.73, 2949.4 989.76 M661.99 3645.52 C1359.21 2830.83, 2060.88 2021.67, 2949.01 1014.6 M661.99 3645.52 C1268.34 2955.7, 1868.01 2265.29, 2949.01 1014.6 M683.25 3645.45 C1343.36 2891.64, 1996.43 2141.42, 2949.28 1038.68 M683.25 3645.45 C1464.66 2747.6, 2243.95 1851.36, 2949.28 1038.68 M704.51 3645.38 C1241.71 3010.64, 1787.15 2381.92, 2949.55 1062.76 M704.51 3645.38 C1510.52 2713.4, 2316.78 1785.75, 2949.55 1062.76 M725.77 3645.31 C1345.06 2941.01, 1956.26 2239.08, 2949.16 1087.6 M725.77 3645.31 C1245.21 3054.6, 1758.6 2463.74, 2949.16 1087.6 M746.38 3646 C1193.96 3132.22, 1646.8 2610.39, 2949.42 1111.68 M746.38 3646 C1481.56 2802.88, 2221.77 1950.97, 2949.42 1111.68 M767.64 3645.93 C1209.16 3137.77, 1649.89 2630.23, 2949.03 1136.52 M767.64 3645.93 C1503.92 2804.14, 2231.43 1967.2, 2949.03 1136.52 M788.9 3645.86 C1437.42 2903.59, 2079.51 2165.84, 2949.3 1160.6 M788.9 3645.86 C1423.87 2916.2, 2058.96 2185.7, 2949.3 1160.6 M810.16 3645.79 C1256.93 3134.59, 1703.84 2621.31, 2949.57 1184.68 M810.16 3645.79 C1519.91 2840.47, 2221.6 2033.8, 2949.57 1184.68 M831.42 3645.72 C1395.29 3002.69, 1959.87 2353.53, 2949.18 1209.52 M831.42 3645.72 C1487.1 2887.26, 2147.8 2126.4, 2949.18 1209.52 M852.68 3645.65 C1326.55 3094.3, 1808.82 2539.16, 2949.44 1233.6 M852.68 3645.65 C1516.82 2871.41, 2185.91 2101.86, 2949.44 1233.6 M873.94 3645.58 C1315.46 3144.29, 1758.67 2635.33, 2949.05 1258.43 M873.94 3645.58 C1597.92 2817.34, 2313.63 1994.15, 2949.05 1258.43 M895.2 3645.51 C1518.1 2923.21, 2141.35 2207.72, 2949.32 1282.52 M895.2 3645.51 C1582.93 2855.87, 2276.3 2058.67, 2949.32 1282.52 M916.46 3645.44 C1493.93 2972.62, 2073.03 2307.26, 2949.59 1306.6 M916.46 3645.44 C1577.68 2880.96, 2236.1 2124.01, 2949.59 1306.6 M937.72 3645.37 C1468.35 3047.33, 1993.04 2444.52, 2949.2 1331.43 M937.72 3645.37 C1411.26 3081.97, 1893.76 2526.52, 2949.2 1331.43 M958.98 3645.31 C1699.99 2789.28, 2446.77 1929.95, 2949.46 1355.52 M958.98 3645.31 C1476.89 3060.08, 1988.39 2471.13, 2949.46 1355.52 M979.58 3645.99 C1439.67 3119.87, 1903.19 2587.55, 2949.07 1380.35 M979.58 3645.99 C1390.79 3161.67, 1806.08 2684.36, 2949.07 1380.35 M1000.84 3645.92 C1447.91 3138.02, 1897.9 2621.91, 2949.34 1404.43 M1000.84 3645.92 C1642.89 2914.06, 2284.18 2176.81, 2949.34 1404.43 M1022.1 3645.85 C1710.28 2854.8, 2397.65 2062.35, 2949.6 1428.52 M1022.1 3645.85 C1528.35 3061.43, 2030.23 2484.47, 2949.6 1428.52 M1043.36 3645.78 C1688.73 2905.59, 2338.63 2158.22, 2949.22 1453.35 M1043.36 3645.78 C1421.89 3204.04, 1805.71 2762.78, 2949.22 1453.35 M1064.62 3645.72 C1542.2 3095.61, 2024.44 2540.7, 2949.48 1477.43 M1064.62 3645.72 C1680.28 2938.9, 2293.55 2232.98, 2949.48 1477.43 M1085.88 3645.65 C1553.58 3106.8, 2017.53 2574.5, 2949.09 1502.27 M1085.88 3645.65 C1657.31 2978.15, 2237.01 2310.96, 2949.09 1502.27 M1107.14 3645.58 C1775.69 2892.34, 2435.86 2131.31, 2949.36 1526.35 M1107.14 3645.58 C1781.27 2865.68, 2462.57 2082.45, 2949.36 1526.35 M1128.4 3645.51 C1562.12 3131.65, 2002.51 2624.5, 2949.62 1550.43 M1128.4 3645.51 C1805.66 2868.23, 2484.51 2086.82, 2949.62 1550.43 M1149.66 3645.44 C1851.31 2828.44, 2556.55 2018, 2949.23 1575.27 M1149.66 3645.44 C1666.71 3055.13, 2175.53 2469.61, 2949.23 1575.27 M1170.92 3645.37 C1632.62 3121.09, 2094.47 2591.2, 2949.5 1599.35 M1170.92 3645.37 C1663.11 3082.78, 2157.19 2514.48, 2949.5 1599.35 M1192.18 3645.3 C1680.83 3076.3, 2170.89 2512.62, 2949.11 1624.19 M1192.18 3645.3 C1870.73 2869.08, 2541.76 2096.56, 2949.11 1624.19 M1212.79 3645.99 C1884.9 2878.38, 2556.42 2106.08, 2949.38 1648.27 M1212.79 3645.99 C1895.79 2867.34, 2577.81 2083.08, 2949.38 1648.27 M1234.05 3645.92 C1654.95 3166.52, 2073.08 2686.73, 2949.64 1672.35 M1234.05 3645.92 C1762.46 3035.13, 2293.73 2423.91, 2949.64 1672.35 M1255.31 3645.85 C1866.74 2946.64, 2472.81 2248.48, 2949.25 1697.19 M1255.31 3645.85 C1691.73 3134.76, 2135.58 2623.79, 2949.25 1697.19 M1276.57 3645.78 C1795.65 3055.09, 2309.12 2465.2, 2949.52 1721.27 M1276.57 3645.78 C1834.56 2997.89, 2397.93 2350.7, 2949.52 1721.27 M1297.83 3645.71 C1725.08 3151.57, 2149.64 2662.91, 2949.13 1746.11 M1297.83 3645.71 C1799.88 3069.34, 2305 2488.65, 2949.13 1746.11 M1319.09 3645.64 C1948.04 2911.5, 2582.72 2183.57, 2949.4 1770.19 M1319.09 3645.64 C1739.37 3163.25, 2160.47 2679.27, 2949.4 1770.19 M1340.35 3645.57 C1682.7 3243.75, 2028.72 2846.04, 2949.01 1795.03 M1340.35 3645.57 C1857.6 3044.25, 2375.13 2448.43, 2949.01 1795.03 M1361.61 3645.5 C1684.29 3267.31, 2012.74 2889.41, 2949.27 1819.11 M1361.61 3645.5 C1839.61 3103.84, 2311.94 2560.79, 2949.27 1819.11 M1382.87 3645.43 C1867.04 3087.75, 2354.78 2525.73, 2949.54 1843.19 M1382.87 3645.43 C1977.57 2955.84, 2577.71 2264.9, 2949.54 1843.19 M1404.13 3645.37 C1989.5 2978.9, 2573.18 2306.63, 2949.15 1868.02 M1404.13 3645.37 C1723.32 3277.96, 2038.15 2914.73, 2949.15 1868.02 M1425.39 3645.3 C1847.86 3163.45, 2266.26 2681.27, 2949.42 1892.11 M1425.39 3645.3 C1942.2 3049.16, 2460.74 2452.09, 2949.42 1892.11 M1445.99 3645.98 C1926.7 3096.44, 2403.79 2549.07, 2949.03 1916.94 M1445.99 3645.98 C1975.02 3033.5, 2507.49 2420.8, 2949.03 1916.94 M1467.26 3645.91 C2037.86 2999.08, 2603.55 2347.24, 2949.29 1941.02 M1467.26 3645.91 C1944.52 3104.1, 2419.08 2558.58, 2949.29 1941.02 M1488.52 3645.84 C1983.24 3077.21, 2475.91 2510.3, 2949.56 1965.11 M1488.52 3645.84 C1850.84 3230.63, 2216.48 2809.61, 2949.56 1965.11 M1509.78 3645.78 C2030.29 3049.21, 2545.53 2456.35, 2949.17 1989.94 M1509.78 3645.78 C1834.32 3275.1, 2158.96 2901.41, 2949.17 1989.94 M1531.04 3645.71 C2031.48 3067.31, 2530.91 2494.04, 2949.44 2014.02 M1531.04 3645.71 C1845.12 3287.74, 2158.92 2926.65, 2949.44 2014.02 M1552.3 3645.64 C1933.56 3202.37, 2319.93 2758.13, 2949.05 2038.86 M1552.3 3645.64 C1876.99 3262.98, 2208.27 2882.93, 2949.05 2038.86 M1573.56 3645.57 C2082.96 3063.05, 2591.76 2478.04, 2949.31 2062.94 M1573.56 3645.57 C2016.63 3137.1, 2460.82 2626.13, 2949.31 2062.94 M1594.82 3645.5 C1941.08 3244.13, 2293.7 2838.52, 2949.58 2087.02 M1594.82 3645.5 C2018.4 3158.45, 2438.26 2674.6, 2949.58 2087.02 M1616.08 3645.43 C2143.62 3029.81, 2674.55 2417.31, 2949.19 2111.86 M1616.08 3645.43 C1928.64 3285.58, 2245.32 2921.32, 2949.19 2111.86 M1637.34 3645.36 C2132.11 3073.51, 2627.16 2502.75, 2949.45 2135.94 M1637.34 3645.36 C2009.45 3225.32, 2375.95 2803.91, 2949.45 2135.94 M1658.6 3645.29 C2105.3 3123.23, 2556.29 2605.26, 2949.06 2160.78 M1658.6 3645.29 C2143.15 3095.27, 2625.49 2540.33, 2949.06 2160.78 M1679.2 3645.98 C2126.98 3133.61, 2571.71 2623.76, 2949.33 2184.86 M1679.2 3645.98 C2123.18 3129.42, 2570.74 2613.55, 2949.33 2184.86 M1700.46 3645.91 C2103.67 3181.12, 2508.56 2715.88, 2949.6 2208.94 M1700.46 3645.91 C2162.36 3118.7, 2621.23 2590.66, 2949.6 2208.94 M1721.72 3645.84 C2016.12 3301.87, 2314.91 2958.6, 2949.21 2233.78 M1721.72 3645.84 C1990.5 3334.45, 2257.59 3027.17, 2949.21 2233.78 M1742.98 3645.77 C2139.63 3184.98, 2535.6 2730.3, 2949.47 2257.86 M1742.98 3645.77 C2203.36 3115.01, 2662.1 2587.09, 2949.47 2257.86 M1764.24 3645.7 C2204.63 3138.63, 2647.08 2630.85, 2949.08 2282.7 M1764.24 3645.7 C2165.5 3189.47, 2564.25 2731.36, 2949.08 2282.7 M1785.5 3645.63 C2213.18 3157.99, 2635.99 2669.85, 2949.35 2306.78 M1785.5 3645.63 C2022.83 3373.44, 2255.26 3105.72, 2949.35 2306.78 M1806.76 3645.56 C2040.03 3373.71, 2273.95 3105.4, 2949.62 2330.86 M1806.76 3645.56 C2086.72 3316.12, 2369.4 2990.83, 2949.62 2330.86 M1828.02 3645.5 C2204.78 3213.25, 2578.42 2783.06, 2949.23 2355.7 M1828.02 3645.5 C2209.76 3201.99, 2593.79 2759.99, 2949.23 2355.7 M1849.28 3645.43 C2126.6 3326.28, 2403.02 3009.22, 2949.49 2379.78 M1849.28 3645.43 C2139.62 3305.57, 2434.84 2966.73, 2949.49 2379.78 M1870.54 3645.36 C2230.08 3233.02, 2590.86 2817.52, 2949.1 2404.62 M1870.54 3645.36 C2248.03 3210.33, 2624.88 2776.03, 2949.1 2404.62 M1891.8 3645.29 C2282.78 3196.61, 2675.07 2744.72, 2949.37 2428.7 M1891.8 3645.29 C2299.46 3174.03, 2710.78 2700.45, 2949.37 2428.7 M1912.41 3645.97 C2296.71 3207.95, 2675.97 2771.24, 2949.64 2452.78 M1912.41 3645.97 C2208.46 3303.98, 2508.52 2959.37, 2949.64 2452.78 M1933.67 3645.91 C2218.59 3324.24, 2499.84 3002.15, 2949.25 2477.61 M1933.67 3645.91 C2319.59 3201.55, 2706.63 2755.55, 2949.25 2477.61 M1954.93 3645.84 C2181.99 3386.26, 2405.9 3128.73, 2949.51 2501.7 M1954.93 3645.84 C2208.5 3355.83, 2463.49 3063.08, 2949.51 2501.7 M1976.19 3645.77 C2197.56 3396.05, 2415.98 3144.96, 2949.12 2526.53 M1976.19 3645.77 C2258.06 3320.39, 2539.45 2997.1, 2949.12 2526.53 M1997.45 3645.7 C2193.33 3422.29, 2386.55 3200.08, 2949.39 2550.61 M1997.45 3645.7 C2253.92 3350.69, 2512.41 3054.19, 2949.39 2550.61 M2018.71 3645.63 C2320.39 3298.96, 2619.56 2955.34, 2949 2575.45 M2018.71 3645.63 C2326.48 3285.94, 2637.38 2928.07, 2949 2575.45 M2039.97 3645.56 C2401.69 3231.51, 2761.07 2818.12, 2949.27 2599.53 M2039.97 3645.56 C2389.98 3243.68, 2738.43 2843.55, 2949.27 2599.53 M2061.23 3645.49 C2260.33 3415.3, 2458.04 3188.56, 2949.53 2623.61 M2061.23 3645.49 C2253.21 3423.54, 2446.06 3201.83, 2949.53 2623.61 M2082.49 3645.42 C2424.21 3254.36, 2766.18 2860.95, 2949.14 2648.45 M2082.49 3645.42 C2395.28 3283.71, 2711.52 2919.99, 2949.14 2648.45 M2103.75 3645.35 C2296.17 3420.84, 2492.08 3196.2, 2949.41 2672.53 M2103.75 3645.35 C2285.23 3439.67, 2463.33 3234.38, 2949.41 2672.53 M2125.01 3645.28 C2448.86 3277.47, 2770.2 2909.04, 2949.02 2697.37 M2125.01 3645.28 C2306.69 3438.79, 2487.7 3230.65, 2949.02 2697.37 M2145.61 3645.97 C2465.87 3280.48, 2785.08 2913.35, 2949.29 2721.45 M2145.61 3645.97 C2359.39 3394.92, 2574.5 3147.4, 2949.29 2721.45 M2166.87 3645.9 C2374.36 3405.09, 2584.14 3164.02, 2949.55 2745.53 M2166.87 3645.9 C2380.3 3402.6, 2593.72 3156.76, 2949.55 2745.53 M2188.13 3645.83 C2359.86 3450.81, 2529.56 3254.7, 2949.16 2770.37 M2188.13 3645.83 C2431.5 3367.65, 2672.92 3090.41, 2949.16 2770.37 M2209.39 3645.76 C2445.28 3373.78, 2680.02 3104.13, 2949.43 2794.45 M2209.39 3645.76 C2416.73 3407.31, 2623.72 3169.07, 2949.43 2794.45 M2230.65 3645.69 C2483.79 3352.74, 2740.46 3058.35, 2949.04 2819.29 M2230.65 3645.69 C2488.76 3346.71, 2749.6 3047.05, 2949.04 2819.29 M2251.91 3645.63 C2479.65 3386.83, 2704.12 3126.83, 2949.3 2843.37 M2251.91 3645.63 C2472.93 3387.47, 2697.16 3130.3, 2949.3 2843.37 M2273.17 3645.56 C2474.98 3417.97, 2675.2 3187.98, 2949.57 2867.45 M2273.17 3645.56 C2534.64 3342.93, 2796.98 3040.94, 2949.57 2867.45 M2294.43 3645.49 C2473.7 3439.39, 2651.37 3235.62, 2949.18 2892.29 M2294.43 3645.49 C2493.71 3416.94, 2693.11 3188.26, 2949.18 2892.29 M2315.69 3645.42 C2495.78 3435.84, 2676.46 3228.63, 2949.45 2916.37 M2315.69 3645.42 C2473.57 3462.98, 2630.53 3282.62, 2949.45 2916.37 M2336.95 3645.35 C2483.15 3477.33, 2629.2 3309.45, 2949.06 2941.21 M2336.95 3645.35 C2495.03 3459.82, 2655.3 3275.12, 2949.06 2941.21 M2358.21 3645.28 C2488.15 3498.53, 2617.25 3351.71, 2949.32 2965.29 M2358.21 3645.28 C2584.71 3386.05, 2809.51 3127.75, 2949.32 2965.29 M2378.82 3645.97 C2555.69 3443.63, 2733.29 3239.87, 2949.59 2989.37 M2378.82 3645.97 C2525.49 3476.95, 2670.78 3309.19, 2949.59 2989.37 M2400.08 3645.9 C2583.87 3433.68, 2769.19 3220.6, 2949.2 3014.21 M2400.08 3645.9 C2558.85 3462.7, 2719.64 3277.54, 2949.2 3014.21 M2421.34 3645.83 C2561.87 3483.52, 2701.5 3322.7, 2949.47 3038.29 M2421.34 3645.83 C2564.68 3481.23, 2707.85 3315.76, 2949.47 3038.29 M2442.6 3645.76 C2612.63 3452.61, 2782 3258.47, 2949.08 3063.12 M2442.6 3645.76 C2581.98 3486.33, 2722.42 3325.54, 2949.08 3063.12 M2463.86 3645.69 C2596.39 3491.38, 2732.26 3336.45, 2949.34 3087.2 M2463.86 3645.69 C2619.49 3466.07, 2776.75 3285.12, 2949.34 3087.2 M2485.12 3645.62 C2599.33 3514.9, 2715.12 3381.92, 2949.61 3111.29 M2485.12 3645.62 C2621.92 3486.78, 2758.47 3329.35, 2949.61 3111.29 M2506.38 3645.55 C2606.22 3528.14, 2706.92 3412.16, 2949.22 3136.12 M2506.38 3645.55 C2663.41 3467, 2819.42 3287.48, 2949.22 3136.12 M2527.64 3645.48 C2680.82 3468.78, 2833.75 3292.55, 2949.49 3160.2 M2527.64 3645.48 C2647.14 3506.3, 2767.89 3367.33, 2949.49 3160.2 M2548.9 3645.41 C2702.07 3467.96, 2857.18 3289.96, 2949.1 3185.04 M2548.9 3645.41 C2680.5 3496.46, 2810.19 3347.44, 2949.1 3185.04 M2570.16 3645.35 C2692.47 3505.57, 2813.69 3364.17, 2949.36 3209.12 M2570.16 3645.35 C2672.96 3528.3, 2775.87 3409.97, 2949.36 3209.12 M2591.42 3645.28 C2709.7 3508.88, 2827.14 3373.18, 2949.63 3233.2 M2591.42 3645.28 C2710.66 3509.83, 2829.79 3373.42, 2949.63 3233.2 M2612.02 3645.96 C2681.94 3566.99, 2752.37 3487.7, 2949.24 3258.04 M2612.02 3645.96 C2693.26 3552.99, 2774.69 3459.25, 2949.24 3258.04 M2633.28 3645.89 C2703.94 3564.26, 2775.21 3482.52, 2949.51 3282.12 M2633.28 3645.89 C2725.12 3538.91, 2818.73 3431.77, 2949.51 3282.12 M2654.54 3645.82 C2727.58 3563.29, 2799.93 3480.19, 2949.12 3306.96 M2654.54 3645.82 C2733.97 3553.68, 2813.6 3462.8, 2949.12 3306.96 M2675.81 3645.75 C2768.81 3537.64, 2863.55 3427.86, 2949.38 3331.04 M2675.81 3645.75 C2746.83 3562.57, 2817.44 3481.05, 2949.38 3331.04 M2697.07 3645.69 C2779.36 3549.9, 2863.73 3455.84, 2949.65 3355.12 M2697.07 3645.69 C2746.48 3588.39, 2797.24 3530.49, 2949.65 3355.12 M2718.33 3645.62 C2802.82 3549.03, 2884.94 3454.52, 2949.26 3379.96 M2718.33 3645.62 C2787.67 3567.73, 2857.39 3488.24, 2949.26 3379.96 M2739.59 3645.55 C2795.45 3578.08, 2853.85 3511.29, 2949.52 3404.04 M2739.59 3645.55 C2816.67 3557.43, 2892.09 3470.8, 2949.52 3404.04 M2760.85 3645.48 C2803.94 3596.11, 2846.15 3545.22, 2949.13 3428.88 M2760.85 3645.48 C2800.55 3597.7, 2840.67 3551.07, 2949.13 3428.88 M2782.11 3645.41 C2845.04 3576.66, 2905.63 3503.16, 2949.4 3452.96 M2782.11 3645.41 C2822.9 3598.48, 2864.26 3550.69, 2949.4 3452.96 M2803.37 3645.34 C2849.84 3593.27, 2894.13 3539.59, 2949.01 3477.8 M2803.37 3645.34 C2838.03 3606.17, 2870.09 3568.25, 2949.01 3477.8 M2824.63 3645.27 C2856.42 3608.49, 2886.29 3575.94, 2949.28 3501.88 M2824.63 3645.27 C2853.93 3610.55, 2885.22 3576.26, 2949.28 3501.88 M2845.23 3645.96 C2876.52 3608.23, 2909.61 3574.9, 2949.54 3525.96 M2845.23 3645.96 C2875.16 3610.76, 2906.18 3575.02, 2949.54 3525.96 M2866.49 3645.89 C2895.4 3612.2, 2926.98 3575.09, 2949.15 3550.8 M2866.49 3645.89 C2891.2 3617.85, 2914.49 3590.57, 2949.15 3550.8 M2887.75 3645.82 C2899.54 3629.35, 2913.75 3611.4, 2949.42 3574.88 M2887.75 3645.82 C2911.3 3618.19, 2937.58 3588.49, 2949.42 3574.88 M2909.01 3645.75 C2922.91 3630.28, 2935.95 3613.79, 2949.03 3599.71 M2909.01 3645.75 C2917.78 3635.88, 2926.33 3624.15, 2949.03 3599.71 M2933.55 3641.91 C2937.94 3637.57, 2940.25 3633.51, 2947.33 3626.06 M2933.55 3641.91 C2936.17 3638.53, 2939.16 3635.17, 2947.33 3626.06" stroke="#e9ecef" stroke-width="2" fill="none"></path><path d="M32 0 C669.4 6.71, 1307.94 7.13, 2916.6 0 M32 0 C747.76 2.39, 1463.92 2.2, 2916.6 0 M2916.6 0 C2939.64 0.12, 2947.43 11.9, 2948.6 32 M2916.6 0 C2938.67 -0.78, 2948.57 9.89, 2948.6 32 M2948.6 32 C2959.05 1125.71, 2959.37 2219.86, 2948.6 3613.2 M2948.6 32 C2958.39 826.11, 2958.89 1619.52, 2948.6 3613.2 M2948.6 3613.2 C2948.26 3632.83, 2936.37 3645.85, 2916.6 3645.2 M2948.6 3613.2 C2950.3 3635.35, 2936.02 3644.36, 2916.6 3645.2 M2916.6 3645.2 C1854.45 3649.01, 793.1 3648.79, 32 3645.2 M2916.6 3645.2 C1831.27 3648.24, 745.01 3648.63, 32 3645.2 M32 3645.2 C11.93 3646.06, 1.2 3636.38, 0 3613.2 M32 3645.2 C11.02 3644.57, -1.95 3634.43, 0 3613.2 M0 3613.2 C-0.01 2534.3, -1.06 1456.93, 0 32 M0 3613.2 C2.62 2255.84, 2.82 898.38, 0 32 M0 32 C1.44 12.54, 10.42 -0.99, 32 0 M0 32 C1.45 11.93, 9.88 -0.79, 32 0" stroke="#c2255c" stroke-width="4" fill="none"></path></g><g transform="translate(1107.6027046080853 218.79670576171338) rotate(0 308.17730712890625 44.133580080753745)"><text x="0" y="61.85762584118439" font-family="Virgil, Segoe UI Emoji" font-size="70.61372812920592px" fill="#2f9e44" text-anchor="start" style="white-space: pre;" direction="ltr" dominant-baseline="alphabetic">API VERSION: 1.0</text></g><g transform="translate(699.6652887265082 655.3613087226804) rotate(0 703.075840330057 233.78869448183104)"><text x="0" y="46.81117631224775" font-family="Virgil, Segoe UI Emoji" font-size="53.43741588156137px" fill="#1971c2" text-anchor="start" style="white-space: pre;" direction="ltr" dominant-baseline="alphabetic">1. v1/recipe/create [POST] - Create a recipe</text><text x="0" y="113.60794616419946" font-family="Virgil, Segoe UI Emoji" font-size="53.43741588156137px" fill="#1971c2" text-anchor="start" style="white-space: pre;" direction="ltr" dominant-baseline="alphabetic">2. v1/receipe/update [POST/PUT] - Update a recipe</text><text x="0" y="180.40471601615116" font-family="Virgil, Segoe UI Emoji" font-size="53.43741588156137px" fill="#1971c2" text-anchor="start" style="white-space: pre;" direction="ltr" dominant-baseline="alphabetic">3. v1/recipe/delete [DELETE] - Delete a recipe</text><text x="0" y="247.2014858681029" font-family="Virgil, Segoe UI Emoji" font-size="53.43741588156137px" fill="#1971c2" text-anchor="start" style="white-space: pre;" direction="ltr" dominant-baseline="alphabetic">4. v1/recipe/all [GET] - Get all recipes</text><text x="0" y="313.9982557200546" font-family="Virgil, Segoe UI Emoji" font-size="53.43741588156137px" fill="#1971c2" text-anchor="start" style="white-space: pre;" direction="ltr" dominant-baseline="alphabetic">5. v1/recipe/[recipeID] [GET] - Get a recipe</text><text x="0" y="380.7950255720063" font-family="Virgil, Segoe UI Emoji" font-size="53.43741588156137px" fill="#1971c2" text-anchor="start" style="white-space: pre;" direction="ltr" dominant-baseline="alphabetic">6. login/ [POST] - Login with Email/password</text><text x="0" y="447.59179542395805" font-family="Virgil, Segoe UI Emoji" font-size="53.43741588156137px" fill="#1971c2" text-anchor="start" style="white-space: pre;" direction="ltr" dominant-baseline="alphabetic">7. signup/ [POST] - sign up Email/password</text></g><g transform="translate(1075.9083189130179 1727.4040248670062) rotate(0 345.3507097739712 83.14493201486039)"><text x="0" y="58.26796835601401" font-family="Virgil, Segoe UI Emoji" font-size="66.51594561188814px" fill="#2f9e44" text-anchor="start" style="white-space: pre;" direction="ltr" dominant-baseline="alphabetic">NUXT JS FEATURES</text><text x="0" y="141.41290037087418" font-family="Virgil, Segoe UI Emoji" font-size="66.51594561188814px" fill="#2f9e44" text-anchor="start" style="white-space: pre;" direction="ltr" dominant-baseline="alphabetic"></text></g><g transform="translate(608.3309299493558 2168.7398256745473) rotate(0 996.5923370730961 200.3903095558544)"><text x="0" y="40.123865410497984" font-family="Virgil, Segoe UI Emoji" font-size="45.8034993270525px" fill="#1971c2" text-anchor="start" style="white-space: pre;" direction="ltr" dominant-baseline="alphabetic">1. Server middlewares + Nitro server + h3 server</text><text x="0" y="97.3782395693136" font-family="Virgil, Segoe UI Emoji" font-size="45.8034993270525px" fill="#1971c2" text-anchor="start" style="white-space: pre;" direction="ltr" dominant-baseline="alphabetic">2. File based routing</text><text x="0" y="154.63261372812923" font-family="Virgil, Segoe UI Emoji" font-size="45.8034993270525px" fill="#1971c2" text-anchor="start" style="white-space: pre;" direction="ltr" dominant-baseline="alphabetic">3. SEO and Meta - built-in composables</text><text x="0" y="211.88698788694487" font-family="Virgil, Segoe UI Emoji" font-size="45.8034993270525px" fill="#1971c2" text-anchor="start" style="white-space: pre;" direction="ltr" dominant-baseline="alphabetic">4. Data fetching - client side and server side data fetching</text><text x="0" y="269.1413620457605" font-family="Virgil, Segoe UI Emoji" font-size="45.8034993270525px" fill="#1971c2" text-anchor="start" style="white-space: pre;" direction="ltr" dominant-baseline="alphabetic">5. State management - server side state management vs client side state management</text><text x="0" y="326.3957362045761" font-family="Virgil, Segoe UI Emoji" font-size="45.8034993270525px" fill="#1971c2" text-anchor="start" style="white-space: pre;" direction="ltr" dominant-baseline="alphabetic">6. Caching (Optional)</text><text x="0" y="383.6501103633917" font-family="Virgil, Segoe UI Emoji" font-size="45.8034993270525px" fill="#1971c2" text-anchor="start" style="white-space: pre;" direction="ltr" dominant-baseline="alphabetic">7. Page transition</text></g></svg>